<svg viewBox="0 0 223 43" xmlns="http://www.w3.org/2000/svg" data-logo="logo">
  <g transform="translate(0, 1) rotate(0)" id="logogram" style="opacity: 1;"><path fill="#68DBFF" d="M40.1509 20.27C40.1509 31.3157 31.1966 40.27 20.1509 40.27C9.10524 40.27 0.150879 31.3157 0.150879 20.27C0.150879 9.2243 9.10524 0.269989 20.1509 0.269989C31.1966 0.269989 40.1509 9.2243 40.1509 20.27Z"></path><path fill="#FF7917" d="M63.1509 20.27C63.1509 31.3157 54.1964 40.27 43.1508 40.27C32.1052 40.27 23.1509 31.3157 23.1509 20.27C23.1509 9.2243 32.1052 0.269989 43.1508 0.269989C54.1964 0.269989 63.1509 9.2243 63.1509 20.27Z"></path><path fill="#5D2C02" d="M31.6509 36.6351C36.792 33.0157 40.1509 27.0351 40.1509 20.27C40.1509 13.5049 36.792 7.52425 31.6509 3.90488C26.5098 7.52425 23.1509 13.5049 23.1509 20.27C23.1509 27.0351 26.5098 33.0157 31.6509 36.6351Z" clip-rule="evenodd" fill-rule="evenodd"></path></g>
  <g transform="translate(70, 1.5)" id="logotype" style="opacity: 1;"><path d="M17.64 33.38L17.64 33.38Q14.58 33.38 12.31 32.44Q10.05 31.50 8.79 29.65Q7.52 27.80 7.45 25.10L7.45 25.10L12.53 25.10Q12.63 26.39 13.30 27.25Q13.96 28.11 15.07 28.54Q16.19 28.97 17.59 28.97L17.59 28.97Q18.99 28.97 20.02 28.57Q21.06 28.16 21.64 27.43Q22.22 26.69 22.22 25.72L22.22 25.72Q22.22 24.85 21.70 24.26Q21.18 23.67 20.20 23.24Q19.23 22.81 17.83 22.49L17.83 22.49L15.02 21.79Q11.79 21.00 9.96 19.32Q8.14 17.64 8.14 14.87L8.14 14.87Q8.14 12.56 9.38 10.83Q10.61 9.11 12.78 8.15Q14.94 7.19 17.71 7.19L17.71 7.19Q20.53 7.19 22.63 8.16Q24.73 9.13 25.91 10.84Q27.09 12.56 27.12 14.80L27.12 14.80L22.08 14.80Q21.94 13.26 20.77 12.42Q19.60 11.59 17.66 11.59L17.66 11.59Q16.34 11.59 15.40 11.96Q14.46 12.34 13.96 13.00Q13.47 13.67 13.47 14.53L13.47 14.53Q13.47 15.47 14.04 16.09Q14.61 16.71 15.54 17.10Q16.48 17.48 17.55 17.74L17.55 17.74L19.86 18.30Q21.47 18.66 22.85 19.28Q24.23 19.89 25.28 20.79Q26.32 21.69 26.89 22.92Q27.46 24.15 27.46 25.75L27.46 25.75Q27.46 28.06 26.30 29.78Q25.14 31.50 22.94 32.44Q20.73 33.38 17.64 33.38ZM33.96 40.14L28.83 40.14L28.83 13.89L33.87 13.89L33.87 17.11L34.11 17.11Q34.47 16.35 35.13 15.55Q35.79 14.75 36.86 14.20Q37.94 13.65 39.56 13.65L39.56 13.65Q41.68 13.65 43.44 14.75Q45.20 15.84 46.25 18.03Q47.30 20.22 47.30 23.48L47.30 23.48Q47.30 26.66 46.28 28.86Q45.25 31.05 43.49 32.19Q41.73 33.32 39.53 33.32L39.53 33.32Q37.97 33.32 36.90 32.79Q35.82 32.27 35.14 31.49Q34.47 30.71 34.11 29.94L34.11 29.94L33.96 29.94L33.96 40.14ZM37.96 29.21L37.96 29.21Q39.29 29.21 40.20 28.47Q41.12 27.74 41.59 26.44Q42.06 25.14 42.06 23.46L42.06 23.46Q42.06 21.79 41.59 20.51Q41.12 19.23 40.21 18.49Q39.31 17.76 37.96 17.76L37.96 17.76Q36.64 17.76 35.72 18.47Q34.79 19.17 34.32 20.45Q33.84 21.72 33.84 23.46L33.84 23.46Q33.84 25.19 34.32 26.48Q34.81 27.77 35.73 28.49Q36.66 29.21 37.96 29.21ZM53.95 33.38L53.95 33.38Q52.14 33.38 50.69 32.74Q49.25 32.09 48.42 30.82Q47.59 29.55 47.59 27.65L47.59 27.65Q47.59 26.06 48.18 24.98Q48.77 23.91 49.79 23.26Q50.81 22.61 52.10 22.27Q53.39 21.93 54.80 21.79L54.80 21.79Q56.46 21.62 57.48 21.47Q58.50 21.33 58.97 21.01Q59.44 20.70 59.44 20.08L59.44 20.08L59.44 19.99Q59.44 19.17 59.09 18.61Q58.75 18.05 58.09 17.75Q57.42 17.45 56.45 17.45L56.45 17.45Q55.45 17.45 54.72 17.75Q53.98 18.05 53.52 18.54Q53.06 19.04 52.84 19.65L52.84 19.65L48.14 18.87Q48.64 17.21 49.78 16.05Q50.93 14.88 52.63 14.27Q54.33 13.65 56.45 13.65L56.45 13.65Q58.00 13.65 59.45 14.02Q60.91 14.39 62.06 15.16Q63.21 15.93 63.89 17.16Q64.56 18.39 64.56 20.13L64.56 20.13L64.56 33L59.71 33L59.71 30.35L59.54 30.35Q59.08 31.24 58.31 31.91Q57.54 32.59 56.45 32.98Q55.37 33.38 53.95 33.38ZM55.40 29.77L55.40 29.77Q56.62 29.77 57.53 29.29Q58.44 28.81 58.96 27.99Q59.47 27.17 59.47 26.16L59.47 26.16L59.47 24.10Q59.25 24.27 58.79 24.40Q58.33 24.54 57.76 24.64Q57.20 24.75 56.65 24.83Q56.10 24.92 55.68 24.97L55.68 24.97Q54.74 25.10 54.02 25.41Q53.30 25.72 52.91 26.22Q52.51 26.73 52.51 27.51L52.51 27.51Q52.51 28.25 52.89 28.75Q53.27 29.26 53.91 29.51Q54.55 29.77 55.40 29.77ZM71.79 33L66.66 33L66.66 13.89L71.62 13.89L71.62 17.23L71.82 17.23Q72.35 15.45 73.59 14.54Q74.83 13.64 76.44 13.64L76.44 13.64Q76.83 13.64 77.28 13.68Q77.74 13.72 78.10 13.81L78.10 13.81L78.10 18.39Q77.75 18.27 77.10 18.20Q76.46 18.13 75.87 18.13L75.87 18.13Q74.71 18.13 73.77 18.64Q72.83 19.14 72.31 20.04Q71.79 20.93 71.79 22.13L71.79 22.13L71.79 33ZM86.78 23.48L83.29 27.41L83.29 21.24L84.06 21.24L90.31 13.89L96.24 13.89L87.99 23.48L86.78 23.48ZM83.77 33L78.64 33L78.64 7.54L83.77 7.54L83.77 33ZM96.60 33L90.57 33L84.83 24.63L88.26 20.99L96.60 33ZM105.30 33.38L105.30 33.38Q102.38 33.38 100.26 32.18Q98.14 30.98 97.00 28.78Q95.87 26.57 95.87 23.55L95.87 23.55Q95.87 20.59 96.99 18.37Q98.12 16.15 100.19 14.90Q102.26 13.65 105.04 13.65L105.04 13.65Q106.92 13.65 108.55 14.25Q110.17 14.85 111.40 16.06Q112.63 17.26 113.32 19.07Q114.01 20.88 114.01 23.34L114.01 23.34L114.01 24.78L97.97 24.78L97.97 21.57L111.50 21.57L109.11 22.42Q109.11 20.93 108.66 19.83Q108.20 18.73 107.31 18.12Q106.41 17.52 105.08 17.52L105.08 17.52Q103.76 17.52 102.83 18.13Q101.90 18.75 101.42 19.80Q100.94 20.85 100.94 22.20L100.94 22.20L100.94 24.47Q100.94 26.13 101.50 27.26Q102.05 28.39 103.05 28.95Q104.05 29.51 105.38 29.51L105.38 29.51Q106.29 29.51 107.02 29.26Q107.76 29.00 108.28 28.50Q108.80 27.99 109.08 27.26L109.08 27.26L113.72 28.13Q113.26 29.70 112.12 30.89Q110.97 32.08 109.26 32.73Q107.54 33.38 105.30 33.38ZM120.37 21.94L120.37 21.94L120.37 33L115.24 33L115.24 13.89L120.08 13.89L120.16 18.66L119.86 18.66Q120.61 16.27 122.14 14.96Q123.67 13.65 126.10 13.65L126.10 13.65Q128.08 13.65 129.55 14.52Q131.02 15.38 131.84 17.00Q132.66 18.61 132.66 20.85L132.66 20.85L132.66 33L127.53 33L127.53 21.74Q127.53 19.96 126.62 18.95Q125.70 17.94 124.08 17.94L124.08 17.94Q123.00 17.94 122.16 18.41Q121.31 18.88 120.84 19.77Q120.37 20.66 120.37 21.94ZM141.75 33.32L141.75 33.32Q139.54 33.32 137.77 32.19Q136.01 31.05 134.98 28.86Q133.95 26.66 133.95 23.48L133.95 23.48Q133.95 20.22 135.01 18.03Q136.07 15.84 137.83 14.75Q139.59 13.65 141.71 13.65L141.71 13.65Q143.34 13.65 144.41 14.20Q145.49 14.75 146.16 15.55Q146.82 16.35 147.15 17.11L147.15 17.11L147.32 17.11L147.32 7.54L152.45 7.54L152.45 33L147.40 33L147.40 29.94L147.15 29.94Q146.81 30.71 146.13 31.49Q145.46 32.27 144.38 32.79Q143.30 33.32 141.75 33.32ZM143.32 29.21L143.32 29.21Q144.62 29.21 145.54 28.49Q146.46 27.77 146.94 26.48Q147.42 25.19 147.42 23.46L147.42 23.46Q147.42 21.72 146.95 20.45Q146.48 19.17 145.56 18.47Q144.64 17.76 143.32 17.76L143.32 17.76Q141.97 17.76 141.06 18.49Q140.14 19.23 139.68 20.51Q139.22 21.79 139.22 23.46L139.22 23.46Q139.22 25.14 139.69 26.44Q140.16 27.74 141.07 28.47Q141.99 29.21 143.32 29.21Z" fill="currentColor"></path></g>
</svg>